<?xml version="1.0" encoding="utf-8"?>
<svg viewBox="0 0 500 500" xmlns="http://www.w3.org/2000/svg">
  <path fill="#fff" d="M 249.076 2.56 C 60.168 2.56 -57.889 206.768 36.564 370.136 C 80.403 445.954 161.412 492.661 249.076 492.661 C 437.981 492.661 556.04 288.452 461.586 125.086 C 417.748 49.267 336.739 2.56 249.076 2.56 Z" style=""/>
  <path fill="#fff" d="M 249.742 346.381 C 59.812 346.381 -58.884 402.569 36.079 447.52 C 80.156 468.382 161.604 481.233 249.742 481.233 C 439.671 481.233 558.368 425.045 463.403 380.094 C 419.328 359.233 337.88 346.381 249.742 346.381 Z" style=""/>
  <g transform="matrix(1.953125, 0, 0, 1.953125, 64.493639, 2.767373)">
    <path d="M 185.103 216.712 L 147.172 216.712 L 147.172 157.309 C 147.172 143.144 146.919 124.908 127.443 124.908 C 107.688 124.908 104.665 140.342 104.665 156.277 L 104.665 216.708 L 66.734 216.708 L 66.734 94.551 L 103.148 94.551 L 103.148 111.245 L 103.657 111.245 C 111.082 98.55 124.888 90.967 139.585 91.513 C 178.03 91.513 185.119 116.801 185.119 149.699 L 185.103 216.712 Z M 23.935 77.853 C 11.778 77.855 1.921 68.002 1.919 55.845 C 1.917 43.687 11.77 33.83 23.927 33.828 C 36.084 33.826 45.941 43.68 45.943 55.837 C 45.944 61.675 43.626 67.274 39.498 71.403 C 35.371 75.532 29.773 77.852 23.935 77.853 M 42.9 216.712 L 4.93 216.712 L 4.93 94.551 L 42.9 94.551 L 42.9 216.712 Z M 204.013 -1.397 L -14.131 -1.397 C -24.441 -1.514 -32.895 6.745 -33.021 17.055 L -33.021 236.109 C -32.9 246.424 -24.446 254.69 -14.131 254.582 L 204.013 254.582 C 214.348 254.71 222.836 246.444 222.979 236.109 L 222.979 17.039 C 222.831 6.709 214.343 -1.549 204.013 -1.415" fill="#0A66C2"/>
  </g>
</svg>